PathFileType	4	(X/Y/Z)	C:\Users\WrightLab\Desktop\Jo\P4V121.trc
DataRate	CameraRate	NumFrames	NumMarkers	Units	OrigDataRate	OrigDataStartFrame	OrigNumFrames
100.00	100.00	       14	19	mm	100.00	69	       551
Frame#	Time	Headset_Front			Headset_Back			Headset_Left			Headset_Right			Left_Shoulder			Right_Shoulder			Sternum			C7			Left Elbow			Right Elbow			Left Wrist			Right Wrist			Left ASIS			Right ASIS			S2			Left Knee			Right Knee			Left Ankle			Right Ankle			
		X1	Y1	Z1	X2	Y2	Z2	X3	Y3	Z3	X4	Y4	Z4	X5	Y5	Z5	X6	Y6	Z6	X7	Y7	Z7	X8	Y8	Z8	X9	Y9	Z9	X10	Y10	Z10	X11	Y11	Z11	X12	Y12	Z12	X13	Y13	Z13	X14	Y14	Z14	X15	Y15	Z15	X16	Y16	Z16	X17	Y17	Z17	X18	Y18	Z18	X19	Y19	Z19	

69	0.680																									140.72000	1139.50256	-1369.10925				45.91783	865.62292	-1250.58752	-453.63852	846.26544	-1440.44019	15.42995	977.21136	-1392.86487	-311.04999	999.77856	-1455.21472				37.01859	500.96265	-1514.76685	-381.22394	548.65210	-1364.24097							
70	0.690																									135.35059	1138.78394	-1362.20630				39.02822	864.95667	-1241.43274	-458.34415	841.61731	-1443.58484	12.48171	975.53223	-1386.04187	-314.64749	999.18451	-1447.54285				33.92826	501.87958	-1507.97339	-385.64578	547.88855	-1359.00098							
71	0.700																									129.91185	1138.03369	-1355.40649				31.92681	865.73340	-1232.13196	-461.62930	839.66034	-1443.04541	8.60085	974.12024	-1380.46130	-317.92648	998.83521	-1440.28748				32.34843	500.99747	-1506.86731	-390.85037	547.29565	-1353.59741							
72	0.710																									125.26315	1136.55518	-1347.00244				23.09467	867.11139	-1219.96387	-465.75641	836.02808	-1443.11658	3.47447	972.49365	-1375.65588	-320.91394	997.09247	-1436.16492				27.83855	500.31216	-1500.63135	-396.12119	546.51941	-1349.27527							
73	0.720																									119.89181	1134.63135	-1337.79810				16.11403	866.32953	-1212.07556	-469.73453	832.70465	-1446.13696	-0.26552	971.08429	-1370.71069	-324.92709	993.42517	-1438.10486				26.03953	497.06812	-1504.90881	-401.88455	545.55585	-1343.41284							
74	0.730																									114.45023	1134.48853	-1332.50732				10.01730	866.65186	-1201.61426	-474.01447	830.86432	-1441.13354	-4.92666	970.26184	-1360.37817	-329.73178	993.07776	-1428.72925				22.11902	497.05774	-1498.00952	-407.91690	545.28992	-1337.81860							
75	0.740																									108.97903	1132.44263	-1323.23071				1.13985	867.25787	-1193.98096	-478.95886	826.24780	-1444.85254	-9.13447	969.11176	-1350.50916	-333.00430	991.09711	-1419.84766				18.62951	497.99976	-1489.70605	-413.58493	543.34796	-1331.32776							
76	0.750																									103.91054	1129.93176	-1312.77783				-4.91457	866.17627	-1184.60950	-482.75082	825.33057	-1440.81165	-13.06904	965.49567	-1350.16626	-337.41672	988.60321	-1419.37500				15.49470	499.13794	-1483.62598	-419.48151	543.56207	-1324.83838							
77	0.760																									97.43402	1130.01782	-1308.09814				-13.27703	866.93481	-1175.19983	-487.60812	820.20789	-1446.35876	-18.16282	963.32281	-1345.57117	-342.80246	987.29352	-1414.02905				13.65359	497.20728	-1484.79834	-425.19980	541.84869	-1318.88330							
78	0.770																									92.19768	1127.70422	-1297.87634				-21.13521	866.39465	-1166.37952	-491.63489	818.47046	-1440.76453	-23.10926	960.64758	-1334.62256	-347.24274	986.27460	-1402.52710				8.95196	495.13205	-1480.34668	-432.62595	541.59406	-1311.82471							
79	0.780																									85.89054	1126.35193	-1290.52673				-29.62933	866.82123	-1156.21094	-497.64868	815.13544	-1441.20020	-28.49451	961.08978	-1324.60010	-353.13684	984.63892	-1395.55017				6.79501	492.91605	-1480.30566	-438.55792	540.71063	-1304.75928							
80	0.790																									79.70130	1125.63159	-1283.29590				-35.74163	865.99847	-1146.57422	-502.17770	814.26190	-1435.11047	-34.37242	957.63019	-1323.33838	-357.62939	980.63062	-1394.28687				3.74978	494.26953	-1473.57751	-445.49551	539.71729	-1297.74353							
81	0.800																									73.33930	1123.68762	-1273.63867				-44.80297	866.22119	-1137.61108	-507.88269	812.46167	-1435.79407	-40.08937	956.53064	-1307.77368	-363.39899	980.99225	-1380.49597				-0.80299	495.53491	-1464.56787	-451.10934	538.72192	-1290.91345							
82	0.810																									66.94555	1122.17737	-1265.03320				-51.18719	865.28198	-1128.34045	-513.03296	809.44586	-1428.03943	-45.88394	954.55896	-1301.60181	-369.97281	976.93188	-1377.85449				-4.52878	492.71048	-1466.43701	-457.90375	536.83441	-1283.80066							
